<svg width="19" height="19" viewBox="0 0 19 19" fill="none" xmlns="http://www.w3.org/2000/svg">
<g clip-path="url(#clip0_108_18)">
<path d="M3.62085 12.9458V3.9458H2.12085V2.4458H4.37085C4.56976 2.4458 4.76053 2.52482 4.90118 2.66547C5.04183 2.80612 5.12085 2.99689 5.12085 3.1958V12.1958H14.4493L15.9493 6.1958H6.62085V4.6958H16.9108C17.0249 4.6958 17.1374 4.7218 17.2398 4.7718C17.3423 4.82181 17.432 4.89451 17.5021 4.98439C17.5722 5.07427 17.621 5.17895 17.6446 5.29048C17.6682 5.40202 17.6661 5.51746 17.6383 5.62805L15.7633 13.1281C15.7227 13.2902 15.6291 13.4342 15.4973 13.5371C15.3654 13.6399 15.203 13.6958 15.0358 13.6958H4.37085C4.17194 13.6958 3.98117 13.6168 3.84052 13.4761C3.69987 13.3355 3.62085 13.1447 3.62085 12.9458ZM5.12085 18.1958C4.72302 18.1958 4.34149 18.0378 4.06019 17.7565C3.77888 17.4752 3.62085 17.0936 3.62085 16.6958C3.62085 16.298 3.77888 15.9164 4.06019 15.6351C4.34149 15.3538 4.72302 15.1958 5.12085 15.1958C5.51867 15.1958 5.9002 15.3538 6.18151 15.6351C6.46281 15.9164 6.62085 16.298 6.62085 16.6958C6.62085 17.0936 6.46281 17.4752 6.18151 17.7565C5.9002 18.0378 5.51867 18.1958 5.12085 18.1958ZM14.1208 18.1958C13.723 18.1958 13.3415 18.0378 13.0602 17.7565C12.7789 17.4752 12.6208 17.0936 12.6208 16.6958C12.6208 16.298 12.7789 15.9164 13.0602 15.6351C13.3415 15.3538 13.723 15.1958 14.1208 15.1958C14.5187 15.1958 14.9002 15.3538 15.1815 15.6351C15.4628 15.9164 15.6208 16.298 15.6208 16.6958C15.6208 17.0936 15.4628 17.4752 15.1815 17.7565C14.9002 18.0378 14.5187 18.1958 14.1208 18.1958Z" fill="#1B191F"/>
</g>
<defs>
<clipPath id="clip0_108_18">
<rect width="18" height="18" fill="white" transform="translate(0.62085 0.945801)"/>
</clipPath>
</defs>
</svg>
