<svg width="163" height="100" viewBox="0 0 163 100" fill="none" xmlns="http://www.w3.org/2000/svg">
<path d="M39.8896 81.7043H33.0581L25.7508 74.397L13.942 80.3369L22.1354 72.149V63.9556L20.768 61.2262H22.1354L27.5995 55.7622V69.4142L33.0636 74.8783V63.9556L31.6962 61.2262H33.0636V51.6709H16.6768L22.1409 46.2068V20.2647L27.605 25.7288V46.2123H38.5277V80.3478L39.8896 81.7043ZM19.4061 16.1625H26.2321L38.5222 28.4526H39.8896L38.5222 29.82V40.7427L33.0581 35.2787V29.8146L19.4061 16.1625Z" fill="#E58200"/>
<path d="M69.9283 29.82V72.149L71.2956 73.5163H60.3675L56.2708 69.4197L52.1741 73.5163H41.2513L42.6187 72.149V63.9556L41.2513 61.2262H42.6187V31.1874L48.0828 36.6515V68.0577H49.4502L53.5469 63.961L52.1795 61.2317H53.5469V29.8255L52.1795 28.4581H60.3729L59.0055 29.8255V63.961L63.1022 68.0577H64.4696V63.961L63.1022 61.2317H64.4696V28.4636H71.2956L69.9283 29.82ZM48.0774 35.2787L41.2513 28.4526H48.0774V35.2787Z" fill="#E58200"/>
<path d="M79.4835 35.2787L72.6575 28.4526H80.8509L79.4835 29.82V35.2787ZM79.4835 36.646V72.149L80.8509 73.5163H72.6575L74.0249 72.149V63.9556L72.6575 61.2262H74.0249V31.1874L79.4835 36.646Z" fill="#E58200"/>
<path d="M89.0388 35.2787L82.2128 28.4526H89.0388V35.2787ZM82.2128 73.5109L83.5802 72.1435V63.9501L82.2128 61.2208H83.5802V31.182L89.0443 36.646V68.0523H94.5083V63.9556L93.141 61.2262H94.5083L99.9724 55.7622V72.149L101.34 73.5163H82.2128V73.5109Z" fill="#E58200"/>
<path d="M109.523 35.2787L102.697 28.4526H109.523V35.2787ZM102.697 73.5109L104.064 72.1435V63.9501L102.697 61.2208H104.064V31.182L109.528 36.646V68.0523H114.992V63.9556L113.625 61.2262H114.992L120.456 55.7622V72.149L121.824 73.5163H102.697V73.5109Z" fill="#E58200"/>
<path d="M124.542 63.9556L123.174 61.2262H124.542V29.82L123.174 28.4526H124.542L136.832 16.1625H143.658L130.006 29.8146V74.8728L135.47 69.4087V63.9446L134.103 61.2153H135.47V29.8091L133.424 27.7635L136.837 24.3505L140.934 28.4472V70.7761L140.25 71.4598L149.127 80.3369L137.319 74.397L130.017 81.7043H123.191L124.558 80.3369V63.9556H124.542Z" fill="#E58200"/>
<path d="M162.544 92.7529H106.563L104.748 94.5633H101.127L102.937 92.7529H99.3108L102.937 89.1265H149.855L148.045 85.5002L162.544 92.7529Z" fill="#E58200"/>
<path d="M158.918 94.5634L148.045 100L149.855 96.3793H133.545L137.171 94.5634H158.918Z" fill="#E58200"/>
<path d="M135.355 94.5634L131.734 96.3793H128.108L131.734 94.5634H135.355Z" fill="#E58200"/>
<path d="M129.919 94.5634L126.298 96.3793H122.671L126.298 94.5634H129.919Z" fill="#E58200"/>
<path d="M124.482 94.5634L120.861 96.3793H117.234L120.861 94.5634H124.482Z" fill="#E58200"/>
<path d="M0 92.7529H55.9755L57.7914 94.5633H61.4122L59.6018 92.7529H63.2281L59.6018 89.1265H12.6839L14.4943 85.5002L0 92.7529Z" fill="#E58200"/>
<path d="M3.62085 94.5634L14.4943 100L12.6839 96.3793H28.9941L25.3678 94.5634H3.62085Z" fill="#E58200"/>
<path d="M27.1837 94.5634L30.8046 96.3793H34.4309L30.8046 94.5634H27.1837Z" fill="#E58200"/>
<path d="M32.6204 94.5634L36.2412 96.3793H39.8675L36.2412 94.5634H32.6204Z" fill="#E58200"/>
<path d="M38.0573 94.5634L41.6781 96.3793H45.3044L41.6781 94.5634H38.0573Z" fill="#E58200"/>
<path d="M104.747 87.3161L112 85.5002L108.374 81.8794L93.874 96.3792L83.0005 85.5002L90.2531 78.2531L86.6268 83.6898L95.6899 92.7528L110.184 78.2531L119.247 87.3161H104.747Z" fill="#E58200"/>
<path d="M95.6899 90.9369L88.4373 83.6898L95.6899 87.3161L104.747 78.2531H108.374L95.6899 90.9369Z" fill="#E58200"/>
<path d="M77.5638 92.7529L75.7534 96.3792L79.3797 94.5688L81.1902 96.3792L83.0006 94.5688L86.6269 96.3792L84.8165 92.7529L86.6269 90.9425L81.1902 85.5057L75.7534 90.9425L77.5638 92.7529ZM79.3743 90.937L81.1847 89.1266L82.9951 90.937L81.1847 92.7474L79.3743 90.937Z" fill="#E58200"/>
<path d="M57.6274 87.3161L50.3802 85.5002L54.0065 81.8794L68.5009 96.3792L79.3744 85.5002L72.1272 78.2531L75.7535 83.6898L66.6905 92.7528L52.1906 78.2531L43.1331 87.3161H57.6274Z" fill="#E58200"/>
<path d="M66.6903 90.9369L73.9374 83.6898L66.6903 87.3161L57.6272 78.2531H54.0063L66.6903 90.9369Z" fill="#E58200"/>
<path d="M0 7.25266H55.9755L57.7914 5.43677H61.4122L59.6018 7.25266H63.2281L59.6018 10.879H12.6839L14.4943 14.4998L0 7.25266Z" fill="#E58200"/>
<path d="M3.62085 5.43675L14.4943 0L12.6839 3.62632H28.9941L25.3678 5.43675H3.62085Z" fill="#E58200"/>
<path d="M27.1837 5.43677L30.8046 3.62634H34.4309L30.8046 5.43677H27.1837Z" fill="#E58200"/>
<path d="M32.6204 5.43677L36.2412 3.62634H39.8675L36.2412 5.43677H32.6204Z" fill="#E58200"/>
<path d="M38.0573 5.43677L41.6781 3.62634H45.3044L41.6781 5.43677H38.0573Z" fill="#E58200"/>
<path d="M162.544 7.25266H106.563L104.748 5.43677H101.127L102.937 7.25266H99.3108L102.937 10.879H149.855L148.045 14.4998L162.544 7.25266Z" fill="#E58200"/>
<path d="M158.918 5.43675L148.045 0L149.855 3.62632H133.545L137.171 5.43675H158.918Z" fill="#E58200"/>
<path d="M135.355 5.43677L131.734 3.62634H128.108L131.734 5.43677H135.355Z" fill="#E58200"/>
<path d="M129.919 5.43677L126.298 3.62634H122.671L126.298 5.43677H129.919Z" fill="#E58200"/>
<path d="M124.482 5.43677L120.861 3.62634H117.234L120.861 5.43677H124.482Z" fill="#E58200"/>
<path d="M57.7914 12.6894L50.5388 14.4998L54.1651 18.1261L68.6649 3.62634L79.5384 14.4998L72.2912 21.7525L75.9121 16.3157L66.8545 7.25266L52.3547 21.7525L43.2916 12.6894H57.7914Z" fill="#E58200"/>
<path d="M66.8545 9.06305L74.1017 16.3157L66.8545 12.6894L57.7915 21.7524H54.1652L66.8545 9.06305Z" fill="#E58200"/>
<path d="M84.9752 7.25266L86.7856 3.62634L83.1593 5.43677L81.3488 3.62634L79.5384 5.43677L75.9121 3.62634L77.7225 7.25266L75.9121 9.06308L81.3488 14.4998L86.7856 9.06308L84.9752 7.25266ZM83.1647 9.06308L81.3543 10.8735L79.5439 9.06308L81.3543 7.25266L83.1647 9.06308Z" fill="#E58200"/>
<path d="M104.912 12.6894L112.159 14.4998L108.533 18.1261L94.0384 3.62634L83.1649 14.4998L90.4121 21.7525L86.7858 16.3157L95.8488 7.25266L110.349 21.7525L119.412 12.6894H104.912Z" fill="#E58200"/>
<path d="M95.8487 9.06305L88.6016 16.3157L95.8487 12.6894L104.912 21.7524H108.533L95.8487 9.06305Z" fill="#E58200"/>
</svg>
